SRRun01_grf
version=1
nRows=24
nColumns=19
inDegrees=no
endheader
time	ground_force_r_vx	ground_force_r_vy	ground_force_r_vz	ground_force_r_px	ground_force_r_py	ground_force_r_pz	ground_force_r_mx	ground_force_r_my	ground_force_r_mz	ground_force_l_vx	ground_force_l_vy	ground_force_l_vz	ground_force_l_px	ground_force_l_py	ground_force_l_pz	ground_force_l_mx	ground_force_l_my	ground_force_l_mz
    139.99600000	      0.00000000	      0.00000000	      0.00000000	      0.00000000	      0.00000000	      0.00000000	      0.00000000	      0.00000000	      0.00000000	     25.46950985	   1244.39453082	     38.98192680	      1.11685592	      0.00000000	     -0.31082935	     -0.00000421	     41.33434143	      0.00001257
    139.99700000	      0.00000000	      0.00000000	      0.00000000	      0.00000000	      0.00000000	      0.00000000	      0.00000000	      0.00000000	      0.00000000	     32.26715669	   1236.96326863	     39.07867252	      1.11508818	      0.00000000	     -0.31149496	      0.00000039	     26.76299239	      0.00001829
    139.99800000	      0.00000000	      0.00000000	      0.00000000	      0.00000000	      0.00000000	      0.00000000	      0.00000000	      0.00000000	      0.00000000	     38.18944078	   1229.63393955	     38.54270732	      1.11340898	      0.00000000	     -0.31216814	      0.00000484	     12.88697208	      0.00002493
    139.99900000	      0.00000000	      0.00000000	      0.00000000	      0.00000000	      0.00000000	      0.00000000	      0.00000000	      0.00000000	      0.00000000	     42.92977981	   1222.50778666	     37.19670569	      1.11181654	      0.00000000	     -0.31283581	      0.00000897	      0.24653069	      0.00003203
    140.00000000	      0.00000000	      0.00000000	      0.00000000	      0.00000000	      0.00000000	      0.00000000	      0.00000000	      0.00000000	      0.00000000	     46.30002900	   1215.64822942	     34.93540985	      1.11030076	      0.00000000	     -0.31348225	      0.00001263	    -10.65864252	      0.00003912
    140.00100000	      0.00000000	      0.00000000	      0.00000000	      0.00000000	      0.00000000	      0.00000000	      0.00000000	      0.00000000	      0.00000000	     48.25531831	   1209.07683827	     31.74480261	      1.10884362	      0.00000000	     -0.31408932	      0.00001572	    -19.40326763	      0.00004580
    140.00200000	      0.00000000	      0.00000000	      0.00000000	      0.00000000	      0.00000000	      0.00000000	      0.00000000	      0.00000000	      0.00000000	     48.90237392	   1202.77355800	     27.71124085	      1.10741943	      0.00000000	     -0.31463713	      0.00001817	    -25.66750480	      0.00005172
    140.00300000	      0.00000000	      0.00000000	      0.00000000	      0.00000000	      0.00000000	      0.00000000	      0.00000000	      0.00000000	      0.00000000	     48.49008044	   1196.68131724	     23.01902704	      1.10599523	      0.00000000	     -0.31510513	      0.00001994	    -29.26283889	      0.00005662
    140.00400000	      0.00000000	      0.00000000	      0.00000000	      0.00000000	      0.00000000	      0.00000000	      0.00000000	      0.00000000	      0.00000000	     47.38329447	   1190.71449702	     17.93648847	      1.10453194	      0.00000000	     -0.31547381	      0.00002104	    -30.15044423	      0.00006035
    140.00500000	      0.00000000	      0.00000000	      0.00000000	      0.00000000	      0.00000000	      0.00000000	      0.00000000	      0.00000000	      0.00000000	     46.02294263	   1184.77011354	     12.79216508	      1.10298684	      0.00000000	     -0.31572652	      0.00002151	    -28.44988213	      0.00006284
    140.00600000	      0.00000000	      0.00000000	      0.00000000	      0.00000000	      0.00000000	      0.00000000	      0.00000000	      0.00000000	      0.00000000	     44.87706823	   1178.74009504	      7.94390016	      1.10131741	      0.00000000	     -0.31585145	      0.00002142	    -24.43669633	      0.00006414
    140.00700000	      0.00000000	      0.00000000	      0.00000000	      0.00000000	      0.00000000	      0.00000000	      0.00000000	      0.00000000	      0.00000000	     44.38851751	   1172.52277002	      3.74423264	      1.09948640	      0.00000000	     -0.31584323	      0.00002084	    -18.52844929	      0.00006436
    140.00800000	      0.00000000	      0.00000000	      0.00000000	      0.00000000	      0.00000000	      0.00000000	      0.00000000	      0.00000000	      0.00000000	     44.92523706	   1166.03180907	      0.50550701	      1.09746732	      0.00000000	     -0.31570401	      0.00001988	    -11.25964739	      0.00006368
    140.00900000	      0.00000000	      0.00000000	      0.00000000	      0.00000000	      0.00000000	      0.00000000	      0.00000000	      0.00000000	      0.00000000	     46.73873809	   1159.20146492	     -1.53209578	      1.09524911	      0.00000000	     -0.31544406	      0.00001861	     -3.24685295	      0.00006231
    140.01000000	      0.00000000	      0.00000000	      0.00000000	      0.00000000	      0.00000000	      0.00000000	      0.00000000	      0.00000000	      0.00000000	     49.93534173	   1151.98792685	     -2.22658760	      1.09283907	      0.00000000	     -0.31508177	      0.00001715	      4.85383088	      0.00006050
    140.01100000	      0.00000000	      0.00000000	      0.00000000	      0.00000000	      0.00000000	      0.00000000	      0.00000000	      0.00000000	      0.00000000	     54.46351285	   1144.36760090	     -1.55152215	      1.09026296	      0.00000000	     -0.31464311	      0.00001557	     12.39388239	      0.00005848
    140.01200000	      0.00000000	      0.00000000	      0.00000000	      0.00000000	      0.00000000	      0.00000000	      0.00000000	      0.00000000	      0.00000000	     60.11894315	   1136.33364474	      0.39743620	      1.08756220	      0.00000000	     -0.31416034	      0.00001397	     18.78044843	      0.00005645
    140.01300000	      0.00000000	      0.00000000	      0.00000000	      0.00000000	      0.00000000	      0.00000000	      0.00000000	      0.00000000	      0.00000000	     66.56707183	   1127.89198977	      3.40772461	      1.08478835	      0.00000000	     -0.31366993	      0.00001242	     23.52142676	      0.00005461
    140.01400000	      0.00000000	      0.00000000	      0.00000000	      0.00000000	      0.00000000	      0.00000000	      0.00000000	      0.00000000	      0.00000000	     73.38064683	   1119.05770809	      7.16651350	      1.08199615	      0.00000000	     -0.31320968	      0.00001100	     26.26359847	      0.00005308
    140.01500000	      0.00000000	      0.00000000	      0.00000000	      0.00000000	      0.00000000	      0.00000000	      0.00000000	      0.00000000	      0.00000000	     80.08809199	   1109.85219441	     11.28711111	      1.07923637	      0.00000000	     -0.31281554	      0.00000975	     26.82031779	      0.00005197
    140.01600000	      0.00000000	      0.00000000	      0.00000000	      0.00000000	      0.00000000	      0.00000000	      0.00000000	      0.00000000	      0.00000000	     86.22718721	   1100.30132861	     15.34257374	      1.07654991	      0.00000000	     -0.31251819	      0.00000875	     25.18611284	      0.00005132
    140.01700000	      0.00000000	      0.00000000	      0.00000000	      0.00000000	      0.00000000	      0.00000000	      0.00000000	      0.00000000	      0.00000000	     91.39797199	   1090.43456178	     18.90344220	      1.07396403	      0.00000000	     -0.31234003	      0.00000801	     21.53663396	      0.00005114
    140.01800000	      0.00000000	      0.00000000	      0.00000000	      0.00000000	      0.00000000	      0.00000000	      0.00000000	      0.00000000	      0.00000000	     95.30874279	   1080.28465652	     21.57622156	      1.07149124	      0.00000000	     -0.31229280	      0.00000757	     16.21360721	      0.00005140
    140.01900000	      0.00000000	      0.00000000	      0.00000000	      0.00000000	      0.00000000	      0.00000000	      0.00000000	      0.00000000	      0.00000000	     97.80959622	   1069.88760121	     23.03902912	      1.06913074	      0.00000000	     -0.31237605	      0.00000745	      9.69570681	      0.00005202
